<svg xmlns="http://www.w3.org/2000/svg" viewBox="0 0 812 426" width="812" height="426">
<g fill="#E6E5DC" fill-opacity="0.99" stroke="None">
<path d="M 407.00 28.00 C 407.37 32.95 415.99 35.73 418.75 40.25 C 421.51 44.76 426.84 47.51 430.75 52.25 C 434.67 56.98 437.73 58.81 442.75 64.25 C 447.77 69.69 448.35 68.76 455.25 75.75 C 462.15 82.75 472.35 92.77 479.25 99.75 C 486.15 106.73 486.37 106.81 491.75 112.25 C 497.14 117.68 499.16 119.60 503.75 124.25 C 508.35 128.90 511.55 131.96 515.75 136.25 C 519.96 140.54 523.80 144.12 527.75 148.25 C 531.71 152.37 536.08 156.21 539.75 160.25 C 543.43 164.29 548.57 168.26 551.75 172.25 C 554.93 176.24 561.62 180.32 563.75 184.25 C 565.89 188.17 576.47 192.96 576.00 197.00 C 615.14 170.96 600.05 125.16 604.00 85.00 C 607.95 44.84 589.43 6.40 548.00 0.00 L 451.00 0.00 C 433.58 3.23 417.32 12.96 407.00 28.00 Z"/>
</g>
<g fill="#E6E4DC" fill-opacity="0.93" stroke="None">
<path d="M 395.00 66.00 C 395.00 68.33 395.00 70.67 395.00 73.00 C 397.20 79.34 407.76 83.15 411.75 89.25 C 415.75 95.35 423.84 100.42 428.75 106.25 C 433.67 112.08 440.42 117.58 445.75 123.25 C 451.08 128.92 457.23 134.73 462.75 140.25 C 468.27 145.76 473.58 151.45 479.25 156.75 C 484.92 162.05 490.39 168.83 496.25 173.75 C 502.11 178.67 507.07 186.71 513.25 190.75 C 519.43 194.80 523.61 205.64 530.00 208.00 C 534.00 208.00 538.77 208.81 542.00 209.00 C 554.80 208.51 565.70 203.85 576.00 197.00 C 576.47 192.96 565.89 188.17 563.75 184.25 C 561.62 180.32 554.93 176.24 551.75 172.25 C 548.57 168.26 543.43 164.29 539.75 160.25 C 536.08 156.21 531.71 152.37 527.75 148.25 C 523.80 144.12 519.96 140.54 515.75 136.25 C 511.55 131.96 508.35 128.90 503.75 124.25 C 499.16 119.60 497.14 117.68 491.75 112.25 C 486.37 106.81 486.15 106.73 479.25 99.75 C 472.35 92.77 462.15 82.75 455.25 75.75 C 448.35 68.76 447.77 69.69 442.75 64.25 C 437.73 58.81 434.67 56.98 430.75 52.25 C 426.84 47.51 421.51 44.76 418.75 40.25 C 415.99 35.73 407.37 32.95 407.00 28.00 C 398.94 39.75 395.00 51.05 395.00 66.00 Z"/>
</g>
<g fill="#A22C2B" fill-opacity="0.99" stroke="None">
<path d="M 319.00 40.00 C 301.24 37.12 275.43 40.65 258.00 40.00 C 240.57 39.35 229.18 49.40 220.93 63.93 C 212.67 78.45 218.95 103.65 217.00 121.00 C 215.05 138.35 218.22 155.20 231.92 167.08 C 245.62 178.96 265.12 177.35 283.00 177.00 C 300.88 176.65 321.80 179.79 336.25 169.25 C 350.71 158.72 355.74 143.13 354.00 126.00 C 352.26 108.87 357.27 82.14 351.77 67.23 C 346.27 52.32 333.03 42.28 319.00 40.00 Z"/>
</g>
<g fill="#A12B2A" fill-opacity="0.84" stroke="None">
<path d="M 228.00 219.00 C 232.96 220.03 234.62 226.55 239.25 229.75 C 243.88 232.95 245.13 236.20 250.25 240.75 C 255.37 245.30 254.66 245.26 261.25 251.75 C 267.83 258.25 277.17 267.73 283.75 274.25 C 290.33 280.76 289.78 280.32 294.75 285.25 C 299.72 290.18 301.94 292.47 306.25 296.75 C 310.56 301.04 313.29 303.83 317.25 307.75 C 321.20 311.68 324.46 315.01 328.25 318.75 C 332.04 322.50 335.54 326.14 339.25 329.75 C 342.95 333.36 347.15 337.85 350.75 341.25 C 354.35 344.65 358.37 349.35 361.75 352.25 C 365.13 355.15 369.79 361.36 372.75 363.25 C 375.72 365.14 382.20 375.61 385.00 374.00 C 388.77 354.12 386.20 331.56 387.00 311.00 C 387.80 290.44 384.00 269.53 392.00 251.00 C 377.77 239.92 364.93 225.11 352.00 212.00 C 333.24 220.10 311.68 215.93 291.00 217.00 C 270.32 218.07 247.91 214.66 228.00 219.00 Z"/>
</g>
<g fill="#E7E6DD" fill-opacity="1.00" stroke="None">
<path d="M 658.00 426.00 L 758.00 426.00 C 784.31 421.39 807.40 398.24 812.00 372.00 L 812.00 271.00 C 804.61 234.70 771.51 213.16 734.00 217.00 C 696.49 220.84 651.32 206.69 622.30 236.30 C 593.28 265.92 608.04 311.48 604.00 349.00 C 599.96 386.52 622.29 418.49 658.00 426.00 Z"/>
</g>
<g fill="#A02A29" fill-opacity="0.92" stroke="None">
<path d="M 184.00 253.00 C 189.60 255.68 193.52 261.35 198.25 265.75 C 202.98 270.15 207.57 275.22 212.25 279.75 C 216.93 284.28 221.62 289.18 226.25 293.75 C 230.88 298.32 235.14 302.65 239.75 307.25 C 244.36 311.84 249.14 316.63 253.75 321.25 C 258.36 325.86 263.17 330.65 267.75 335.25 C 272.33 339.85 276.72 344.16 281.25 348.75 C 285.78 353.35 290.80 358.15 295.25 362.75 C 299.69 367.35 305.03 372.19 309.25 376.75 C 313.46 381.32 319.05 385.74 322.75 390.25 C 326.45 394.75 334.07 399.86 336.75 404.25 C 339.43 408.64 351.11 414.22 350.00 419.00 C 367.92 409.33 381.12 394.45 385.00 374.00 C 382.20 375.61 375.72 365.14 372.75 363.25 C 369.79 361.36 365.13 355.15 361.75 352.25 C 358.37 349.35 354.35 344.65 350.75 341.25 C 347.15 337.85 342.95 333.36 339.25 329.75 C 335.54 326.14 332.04 322.50 328.25 318.75 C 324.46 315.01 321.20 311.68 317.25 307.75 C 313.29 303.83 310.56 301.04 306.25 296.75 C 301.94 292.47 299.72 290.18 294.75 285.25 C 289.78 280.32 290.33 280.76 283.75 274.25 C 277.17 267.73 267.83 258.25 261.25 251.75 C 254.66 245.26 255.37 245.30 250.25 240.75 C 245.13 236.20 243.88 232.95 239.25 229.75 C 234.62 226.55 232.96 220.03 228.00 219.00 C 208.89 223.16 193.51 235.76 184.00 253.00 Z"/>
</g>
<g fill="#A22C2B" fill-opacity="0.99" stroke="None">
<path d="M 0.00 283.00 L 0.00 352.00 C 6.21 371.82 22.48 388.54 46.00 386.00 C 69.52 383.46 97.63 392.13 118.75 378.75 C 139.88 365.38 136.85 339.35 137.00 317.00 C 137.15 294.65 139.30 268.69 118.08 255.92 C 96.85 243.15 68.40 251.19 45.00 249.00 C 21.60 246.81 6.75 263.98 0.00 283.00 Z"/>
</g>
<g fill="#E6E5DC" fill-opacity="0.99" stroke="None">
<path d="M 528.00 249.00 C 510.24 246.12 484.43 249.65 467.00 249.00 C 449.57 248.35 438.18 258.40 429.93 272.93 C 421.67 287.45 427.95 312.65 426.00 330.00 C 424.05 347.35 427.22 364.20 440.92 376.08 C 454.62 387.96 474.12 386.35 492.00 386.00 C 509.88 385.65 530.80 388.79 545.25 378.25 C 559.71 367.72 564.74 352.13 563.00 335.00 C 561.26 317.87 566.27 291.14 560.77 276.23 C 555.27 261.32 542.03 251.28 528.00 249.00 Z"/>
</g>
<g fill="#A12B2A" fill-opacity="0.98" stroke="None">
<path d="M 184.00 253.00 C 167.69 282.57 180.42 330.36 177.00 363.00 C 173.58 395.64 204.52 418.77 231.00 426.00 L 332.00 426.00 C 337.97 424.52 344.46 421.99 350.00 419.00 C 351.11 414.22 339.43 408.64 336.75 404.25 C 334.07 399.86 326.45 394.75 322.75 390.25 C 319.05 385.74 313.46 381.32 309.25 376.75 C 305.03 372.19 299.69 367.35 295.25 362.75 C 290.80 358.15 285.78 353.35 281.25 348.75 C 276.72 344.16 272.33 339.85 267.75 335.25 C 263.17 330.65 258.36 325.86 253.75 321.25 C 249.14 316.63 244.36 311.84 239.75 307.25 C 235.14 302.65 230.88 298.32 226.25 293.75 C 221.62 289.18 216.93 284.28 212.25 279.75 C 207.57 275.22 202.98 270.15 198.25 265.75 C 193.52 261.35 189.60 255.68 184.00 253.00 Z"/>
</g>
</svg>
