<svg xmlns="http://www.w3.org/2000/svg" viewBox="0 0 2480 441" width="2480" height="441">
<g fill="#FEFEFE" fill-opacity="0.99" stroke="None">
<path d="M 392.00 76.00 C 392.91 85.71 393.13 95.90 393.00 106.00 C 392.87 116.10 392.82 126.95 393.00 137.00 C 393.18 147.05 393.26 158.22 391.00 166.00 C 389.40 195.54 364.39 220.20 336.00 225.00 C 336.00 226.00 336.00 227.00 336.00 228.00 C 302.41 227.37 268.18 229.28 235.00 227.00 C 195.75 232.61 172.55 263.04 175.00 303.00 C 177.45 342.96 165.67 388.86 198.00 419.00 C 199.44 419.80 201.16 420.93 202.00 422.00 C 211.55 429.22 219.98 433.05 232.00 435.00 C 239.83 434.89 247.78 433.55 256.00 434.00 C 264.22 434.45 273.85 433.99 282.00 434.00 C 290.15 434.01 299.17 434.47 307.00 434.00 C 314.83 433.53 324.41 434.88 328.00 435.00 C 359.00 430.57 379.97 406.24 384.00 376.00 C 383.41 366.04 382.65 354.71 383.00 344.00 C 383.35 333.29 382.92 321.66 383.00 311.00 C 383.08 300.34 382.25 288.35 385.00 280.00 C 386.86 256.54 401.39 238.70 422.31 227.31 C 443.22 215.91 480.23 221.52 504.00 220.00 C 527.77 218.48 561.74 225.84 577.00 204.00 C 578.81 201.20 583.46 196.79 586.00 195.00 C 601.51 184.88 600.10 163.37 601.00 146.00 C 601.90 128.63 600.00 99.93 601.00 82.00 C 602.00 64.07 597.10 46.12 585.75 33.25 C 574.40 20.37 560.92 13.69 545.00 11.00 C 540.17 11.59 532.13 11.94 524.00 12.00 C 515.87 12.06 507.22 11.76 499.00 12.00 C 490.78 12.24 482.23 11.42 474.00 12.00 C 465.77 12.58 458.00 10.69 450.00 11.00 C 419.48 12.16 389.09 44.96 392.00 76.00 Z"/>
</g>
<g fill="#FEFEFE" fill-opacity="0.98" stroke="None">
<path d="M 317.00 50.00 C 299.19 47.46 272.38 49.87 255.02 50.02 C 237.67 50.17 227.69 61.57 219.77 75.77 C 211.85 89.97 217.87 115.87 216.00 133.00 C 214.13 150.13 218.00 166.55 231.77 178.23 C 245.54 189.91 265.18 188.30 283.00 188.00 C 300.82 187.70 321.53 190.72 335.75 179.75 C 349.98 168.79 354.66 153.38 353.00 136.00 C 351.34 118.62 356.16 92.75 350.31 77.69 C 344.45 62.64 331.71 52.10 317.00 50.00 Z"/>
</g>
<g fill="#FEFEFE" fill-opacity="0.97" stroke="None">
<path d="M 966.00 117.00 C 966.00 215.00 966.00 313.00 966.00 411.00 C 977.33 411.00 988.67 411.00 1000.00 411.00 C 1002.61 335.42 996.53 373.66 1000.00 298.00 C 1001.33 298.48 1003.57 301.22 1002.00 302.00 C 1011.87 324.65 1041.51 329.76 1064.00 329.00 C 1086.49 328.24 1107.20 318.03 1120.08 297.08 C 1132.96 276.12 1131.91 245.28 1132.00 220.00 C 1132.09 194.72 1132.39 165.18 1119.92 144.08 C 1107.46 122.97 1086.29 112.20 1063.00 112.00 C 1039.71 111.80 1015.96 119.96 1003.00 140.00 C 1000.00 117.00 1000.00 117.00 1000.00 117.00 C 988.67 117.00 977.33 117.00 966.00 117.00 M 1095.00 192.00 C 1093.69 167.89 1078.29 146.84 1053.00 145.00 C 1027.71 143.16 1005.52 157.81 1002.00 183.00 C 998.71 190.20 1000.18 205.15 1000.00 216.00 C 999.72 244.15 1000.61 254.25 1009.00 277.00 C 1014.88 288.25 1029.09 295.06 1041.00 296.00 C 1054.00 296.00 1054.00 296.00 1054.00 296.00 C 1078.88 294.65 1093.73 273.44 1095.00 250.00 C 1096.03 231.06 1096.03 210.94 1095.00 192.00 Z"/>
</g>
<g fill="#FEFEFE" fill-opacity="0.96" stroke="None">
<path d="M 1190.00 115.00 C 1187.67 213.01 1189.66 313.16 1189.00 412.00 C 1201.33 412.00 1213.67 412.00 1226.00 412.00 C 1226.67 375.82 1224.67 338.43 1227.00 303.00 C 1232.92 311.05 1235.74 313.20 1238.00 315.00 C 1258.61 331.44 1291.32 332.96 1315.31 323.31 C 1339.29 313.65 1351.61 289.74 1355.00 266.00 C 1358.61 240.72 1358.49 209.76 1356.00 184.00 C 1352.75 150.40 1336.74 120.40 1301.00 114.00 C 1286.50 112.09 1279.00 113.00 1279.00 113.00 C 1256.64 115.70 1240.72 123.28 1227.00 141.00 C 1225.54 131.25 1226.46 124.75 1226.00 128.00 C 1225.00 115.00 1225.00 115.00 1225.00 115.00 C 1213.97 114.00 1201.03 114.00 1190.00 115.00 M 1320.00 191.00 C 1318.05 166.38 1301.15 146.09 1276.00 145.00 C 1250.85 143.91 1228.04 159.32 1226.00 185.00 C 1223.90 209.32 1224.10 232.68 1226.00 256.00 C 1227.81 276.59 1245.27 294.59 1266.00 296.00 C 1279.00 296.00 1279.00 296.00 1279.00 296.00 C 1303.14 294.36 1318.43 274.10 1320.00 251.00 C 1321.53 231.72 1321.31 210.26 1320.00 191.00 Z"/>
</g>
<g fill="#FEFEFE" fill-opacity="0.98" stroke="None">
<path d="M 1414.00 33.00 C 1414.00 43.52 1414.00 54.53 1414.00 65.00 C 1414.00 75.47 1413.99 85.61 1414.00 96.00 C 1414.01 106.39 1413.98 116.66 1414.00 127.00 C 1414.02 137.34 1413.96 147.71 1414.00 158.00 C 1414.04 168.29 1413.91 178.78 1414.00 189.00 C 1414.09 199.22 1413.80 209.92 1414.00 220.00 C 1414.20 230.08 1413.56 241.23 1414.00 251.00 C 1414.44 260.77 1413.48 272.06 1413.00 279.00 C 1413.63 290.53 1418.17 308.40 1429.00 315.00 C 1445.93 329.89 1468.37 326.49 1488.00 327.00 C 1488.00 315.33 1488.00 303.67 1488.00 292.00 C 1479.51 291.60 1469.02 292.96 1461.08 290.92 C 1453.13 288.89 1452.00 281.15 1450.00 275.00 C 1445.94 249.60 1448.55 221.75 1448.00 195.00 C 1447.45 168.25 1448.29 140.87 1448.00 114.00 C 1447.71 87.13 1448.22 59.90 1448.00 33.00 C 1436.66 33.00 1425.33 33.00 1414.00 33.00 Z"/>
</g>
<g fill="#FEFEFE" fill-opacity="0.87" stroke="None">
<path d="M 1924.00 31.00 C 1911.67 31.00 1899.34 31.00 1887.00 31.00 C 1887.00 43.67 1887.00 56.33 1887.00 69.00 C 1899.33 69.00 1911.67 69.00 1924.00 69.00 C 1924.00 56.33 1924.00 43.67 1924.00 31.00 Z"/>
</g>
<g fill="#FEFEFE" fill-opacity="0.96" stroke="None">
<path d="M 1532.00 115.00 C 1529.66 184.35 1531.67 255.83 1531.00 326.00 C 1543.33 326.00 1555.67 326.00 1568.00 326.00 C 1566.25 293.35 1570.34 252.87 1568.00 221.00 C 1565.66 189.13 1567.67 156.77 1600.33 148.33 C 1632.99 139.89 1656.93 161.57 1659.00 192.00 C 1659.00 236.67 1659.00 281.33 1659.00 326.00 C 1671.33 326.00 1683.67 326.00 1696.00 326.00 C 1696.85 299.53 1694.87 270.18 1696.00 244.00 C 1697.13 217.82 1691.67 191.39 1702.00 168.00 C 1720.53 134.57 1783.44 141.39 1786.00 185.00 C 1788.56 228.61 1786.17 281.25 1787.00 326.00 C 1799.33 326.00 1811.67 326.00 1824.00 326.00 C 1824.22 290.94 1823.71 247.20 1824.00 213.00 C 1824.29 178.80 1822.88 149.87 1797.00 128.00 C 1782.65 116.42 1768.29 112.78 1754.00 112.00 C 1719.50 113.46 1699.02 132.41 1688.00 153.00 C 1681.60 131.27 1660.31 116.82 1639.00 113.00 C 1600.44 112.97 1580.67 123.81 1569.00 141.00 C 1567.00 115.00 1567.00 115.00 1567.00 115.00 C 1555.97 114.00 1543.03 113.99 1532.00 115.00 Z"/>
</g>
<g fill="#FEFEFE" fill-opacity="0.97" stroke="None">
<path d="M 1987.00 115.00 C 1987.00 185.33 1987.00 255.67 1987.00 326.00 C 1997.66 325.57 2008.33 326.57 2019.00 326.00 C 2029.66 325.43 2024.01 310.06 2025.00 301.00 C 2024.49 279.72 2025.00 270.00 2025.00 270.00 C 2023.51 204.97 2026.00 178.00 2026.00 178.00 C 2034.55 150.19 2065.13 139.04 2092.98 151.02 C 2120.82 163.01 2121.76 195.13 2120.00 225.00 C 2118.24 254.87 2121.32 295.18 2120.00 326.00 C 2132.33 326.00 2144.67 326.00 2157.00 326.00 C 2157.19 296.28 2156.74 260.07 2157.00 231.00 C 2157.26 201.93 2159.05 171.34 2146.77 147.23 C 2134.49 123.12 2112.92 113.35 2088.00 112.00 C 2060.21 114.82 2034.05 122.36 2025.00 142.00 C 2025.00 115.00 2025.00 115.00 2025.00 115.00 C 2012.33 115.00 1999.67 115.00 1987.00 115.00 Z"/>
</g>
<g fill="#FEFEFE" fill-opacity="0.96" stroke="None">
<path d="M 2213.00 201.00 C 2210.66 243.83 2212.81 298.05 2255.93 319.07 C 2299.04 340.10 2344.55 327.51 2379.00 299.00 C 2373.81 289.05 2362.97 280.16 2354.00 273.00 C 2338.52 292.40 2306.42 297.70 2284.07 291.93 C 2261.73 286.16 2241.43 259.68 2247.00 236.00 C 2247.00 236.00 2384.00 236.00 2385.00 213.00 C 2383.30 197.14 2383.00 191.00 2383.00 191.00 C 2378.98 171.02 2372.25 153.75 2362.75 139.25 C 2358.87 134.67 2350.25 127.75 2340.78 121.24 C 2335.22 118.78 2323.12 114.99 2317.00 114.00 C 2289.00 113.00 2289.00 113.00 2289.00 113.00 C 2240.96 113.72 2215.34 158.17 2213.00 201.00 M 2247.00 204.00 C 2247.01 173.62 2265.35 147.88 2297.01 146.01 C 2328.66 144.13 2351.18 171.24 2350.00 202.00 C 2350.00 204.00 2247.00 204.00 2247.00 204.00 Z"/>
</g>
<g fill="#FEFEFE" fill-opacity="1.00" stroke="None">
<path d="M 1887.00 115.00 C 1887.06 126.65 1886.92 138.36 1887.00 150.00 C 1887.08 161.64 1886.85 173.38 1887.00 185.00 C 1887.15 196.62 1886.68 208.44 1887.00 220.00 C 1887.32 231.56 1886.30 243.56 1887.00 255.00 C 1887.70 266.44 1885.46 278.83 1887.00 290.00 C 1888.54 301.17 1883.58 314.44 1887.00 325.00 C 1898.34 327.33 1911.84 325.33 1924.00 326.00 C 1924.00 317.96 1924.00 301.06 1924.00 280.00 C 1924.00 257.44 1924.00 244.13 1924.00 235.00 C 1924.00 213.09 1924.00 204.00 1924.00 189.00 C 1924.00 174.00 1924.00 159.00 1924.00 144.00 C 1924.00 126.00 1924.00 115.00 1923.00 115.00 C 1911.00 115.00 1899.00 115.00 1887.00 115.00 Z"/>
</g>
<g fill="#FEFEFE" fill-opacity="0.98" stroke="None">
<path d="M 0.00 290.00 C 7.39 270.38 26.16 255.84 51.00 258.00 C 75.84 260.16 106.32 251.86 125.25 271.75 C 144.18 291.65 134.41 322.64 137.00 347.00 C 139.59 371.36 121.88 394.37 98.00 396.00 C 87.35 396.73 75.61 396.14 65.00 396.00 C 54.39 395.86 43.00 397.55 33.00 395.00 C 17.28 390.99 5.17 377.57 0.00 364.00 L 0.00 290.00 Z"/>
</g>
<g fill="#FEFEFE" fill-opacity="0.98" stroke="None">
<path d="M 424.00 352.00 C 422.06 374.51 440.57 393.72 461.00 396.00 C 480.19 398.14 502.72 397.31 522.00 396.00 C 542.95 394.57 562.06 374.78 560.00 352.00 C 557.94 329.22 565.81 298.91 553.30 277.70 C 540.80 256.48 514.37 257.98 492.00 258.00 C 469.63 258.02 443.42 256.60 430.77 277.77 C 418.12 298.94 425.94 329.49 424.00 352.00 Z"/>
</g>
<g fill="#FEFEFE" fill-opacity="0.99" stroke="None">
<path d="M 600.00 330.00 C 599.87 307.09 597.12 278.08 608.92 258.92 C 620.72 239.75 636.61 230.06 658.00 227.00 C 672.47 224.93 688.71 225.98 704.00 226.00 C 719.29 226.02 736.51 224.93 751.00 227.00 C 764.10 228.87 775.21 232.91 785.00 242.00 C 793.00 249.00 793.00 249.00 793.00 249.00 C 802.26 259.84 808.45 271.11 809.00 286.00 C 809.54 300.90 809.11 323.98 809.00 339.00 C 808.89 354.02 810.99 376.66 806.22 389.22 C 801.45 401.78 784.00 421.00 784.00 421.00 C 778.27 429.79 763.44 433.34 754.00 435.00 C 738.41 437.74 721.14 436.03 705.00 436.00 C 688.86 435.97 670.65 437.75 655.00 435.00 C 634.25 431.35 619.23 421.03 608.08 401.92 C 596.94 382.81 600.13 352.91 600.00 330.00 Z"/>
</g>
<g fill="#E7E6DD" fill-opacity="0.91" stroke="None">
<path d="M 2475.00 286.00 C 2461.67 286.00 2448.33 286.00 2435.00 286.00 C 2435.00 299.33 2435.00 312.67 2435.00 326.00 C 2448.34 326.00 2461.66 326.00 2475.00 326.00 C 2475.00 312.67 2475.00 299.33 2475.00 286.00 Z"/>
</g>
</svg>
